<mxfile host="app.diagrams.net" modified="2020-11-16T08:16:01.344Z" agent="5.0 (Macintosh; Intel Mac OS X 11_0_0) AppleWebKit/537.36 (KHTML, like Gecko) Chrome/86.0.4240.198 Safari/537.36" etag="nsNu5ux9H97sEPrPbVNe" version="13.9.9" type="github">
  <diagram id="rVqNe95w_GsNcSrjxxg6" name="Page-1">
    <mxGraphModel dx="1773" dy="1783" grid="1" gridSize="10" guides="1" tooltips="1" connect="1" arrows="1" fold="1" page="1" pageScale="1" pageWidth="827" pageHeight="1169" math="0" shadow="0">
      <root>
        <mxCell id="0" />
        <mxCell id="1" parent="0" />
        <mxCell id="fDFvNt-1okYRvKuA0XMH-1" value="" style="endArrow=none;dashed=1;html=1;dashPattern=1 3;strokeWidth=2;" edge="1" parent="1">
          <mxGeometry width="50" height="50" relative="1" as="geometry">
            <mxPoint x="240" y="560" as="sourcePoint" />
            <mxPoint x="240" y="80" as="targetPoint" />
          </mxGeometry>
        </mxCell>
        <mxCell id="fDFvNt-1okYRvKuA0XMH-2" value="" style="endArrow=none;dashed=1;html=1;dashPattern=1 3;strokeWidth=2;" edge="1" parent="1">
          <mxGeometry width="50" height="50" relative="1" as="geometry">
            <mxPoint x="400" y="560" as="sourcePoint" />
            <mxPoint x="400" y="80" as="targetPoint" />
          </mxGeometry>
        </mxCell>
        <mxCell id="fDFvNt-1okYRvKuA0XMH-3" value="ofc" style="rounded=0;whiteSpace=wrap;html=1;fontSize=16;" vertex="1" parent="1">
          <mxGeometry x="260" y="210" width="120" height="220" as="geometry" />
        </mxCell>
        <mxCell id="fDFvNt-1okYRvKuA0XMH-6" style="edgeStyle=orthogonalEdgeStyle;rounded=0;orthogonalLoop=1;jettySize=auto;html=1;entryX=0;entryY=0.5;entryDx=0;entryDy=0;fontSize=16;" edge="1" parent="1" source="fDFvNt-1okYRvKuA0XMH-4" target="fDFvNt-1okYRvKuA0XMH-5">
          <mxGeometry relative="1" as="geometry" />
        </mxCell>
        <mxCell id="fDFvNt-1okYRvKuA0XMH-4" value="用户" style="shape=umlActor;verticalLabelPosition=bottom;verticalAlign=top;html=1;outlineConnect=0;fontSize=16;" vertex="1" parent="1">
          <mxGeometry x="-90" y="150" width="30" height="60" as="geometry" />
        </mxCell>
        <mxCell id="fDFvNt-1okYRvKuA0XMH-5" value="商城" style="rounded=0;whiteSpace=wrap;html=1;fontSize=16;" vertex="1" parent="1">
          <mxGeometry x="10" y="150" width="70" height="60" as="geometry" />
        </mxCell>
        <mxCell id="fDFvNt-1okYRvKuA0XMH-7" value="WMS" style="rounded=0;whiteSpace=wrap;html=1;fontSize=16;" vertex="1" parent="1">
          <mxGeometry x="520" y="140" width="120" height="60" as="geometry" />
        </mxCell>
        <mxCell id="fDFvNt-1okYRvKuA0XMH-8" value="供应商" style="shape=umlActor;verticalLabelPosition=bottom;verticalAlign=top;html=1;outlineConnect=0;fontSize=16;" vertex="1" parent="1">
          <mxGeometry x="565" y="-40" width="30" height="60" as="geometry" />
        </mxCell>
        <mxCell id="fDFvNt-1okYRvKuA0XMH-13" value="" style="edgeStyle=orthogonalEdgeStyle;rounded=0;orthogonalLoop=1;jettySize=auto;html=1;fontSize=16;" edge="1" parent="1" source="fDFvNt-1okYRvKuA0XMH-11" target="fDFvNt-1okYRvKuA0XMH-12">
          <mxGeometry relative="1" as="geometry" />
        </mxCell>
        <mxCell id="fDFvNt-1okYRvKuA0XMH-11" value="团长" style="shape=umlActor;verticalLabelPosition=bottom;verticalAlign=top;html=1;outlineConnect=0;fontSize=16;" vertex="1" parent="1">
          <mxGeometry x="-90" y="430" width="30" height="60" as="geometry" />
        </mxCell>
        <mxCell id="fDFvNt-1okYRvKuA0XMH-12" value="" style="rounded=0;whiteSpace=wrap;html=1;fontSize=16;" vertex="1" parent="1">
          <mxGeometry x="10" y="430" width="70" height="60" as="geometry" />
        </mxCell>
      </root>
    </mxGraphModel>
  </diagram>
</mxfile>
